<?xml version="1.0" encoding="iso-8859-1"?>
<!-- Generator: Adobe Illustrator 21.1.0, SVG Export Plug-In . SVG Version: 6.00 Build 0)  -->
<svg xmlns="http://www.w3.org/2000/svg" xmlns:xlink="http://www.w3.org/1999/xlink" version="1.1" id="Layer_1" x="0px" y="0px" viewBox="0 0 48 48" style="enable-background:new 0 0 48 48;" xml:space="preserve">
<g style="display:none;">
</g>
<polygon style="fill:#D7CCC8;" points="15,44 27,41 6,41 "/>
<rect x="6" y="7" style="fill:#FFF176;" width="21" height="34"/>
<polygon style="fill:#FFF59D;" points="6,41 27,41 27,17 6,7 "/>
<polygon style="fill:#FFF9C4;" points="6,41 27,41 27,31 6,7 "/>
<polygon style="fill:#F44336;" points="6,41 13,44 13,4 6,7 "/>
<ellipse style="fill:#E0E0E0;" cx="11.5" cy="26" rx="0.5" ry="1"/>
<rect x="13" y="4" style="fill:#D50000;" width="2" height="40"/>
<path style="fill:#FFA726;" d="M24,19.008c0,0,0.5,0.96,2,0.96c1.667,0,2-0.96,2-0.96v-2.331h-4V19.008z"/>
<polygon style="fill:#455A64;" points="22,32 23,43 26.002,43 29,43 30,32 30,30 22,30 "/>
<polygon style="fill:#FFB74D;" points="20,31 22,32 22,25 20,24 "/>
<polygon style="fill:#FFB74D;" points="30,32 32,31 32,24 30,25 "/>
<circle style="fill:#FFB74D;" cx="26" cy="14" r="4"/>
<path style="fill:#424242;" d="M27.571,9.812L27.19,9h-1.362C23.881,9,22,10.223,22,13.667V14l1,1v-2.5l4.75-1.5L29,12.5V15l1-1  v-0.333C30,11.707,29.823,10.292,27.571,9.812z"/>
<polygon style="fill:#263238;" points="25.457,43 26.547,43 26.002,32.032 "/>
<path style="fill:#039BE5;" d="M28.939,19.349c-0.072,0.2-0.66,1.618-2.939,1.618c-1.663,0-2.597-0.941-2.887-1.498l-0.061-0.117  C20.003,20.796,20,24,20.004,24.355L22,25v6h8v-6l2-1C32,24,31.99,20.791,28.939,19.349z"/>
<path style="fill:#90CAF9;" d="M28,19.008c0,0-0.333,0.96-2,0.96c-1.5,0-2-0.96-2-0.96v-0.011c-0.348,0.094-0.658,0.218-0.948,0.356  l0.061,0.117c0.29,0.556,1.224,1.498,2.887,1.498c2.279,0,2.868-1.418,2.939-1.618c-0.288-0.136-0.595-0.259-0.939-0.352V19.008z"/>
<path style="fill:#F44336;" d="M42.333,9h-6.667C34.747,9,34,9.747,34,10.667v6.667C34,18.253,34.747,19,35.667,19h6.667  C43.253,19,44,18.253,44,17.333v-6.667C44,9.747,43.253,9,42.333,9z"/>
<rect x="38" y="11" style="fill:#FFFFFF;" width="2" height="6"/>
<rect x="36" y="13" style="fill:#FFFFFF;" width="6" height="2"/>
</svg>
